<?xml version="1.0" encoding="UTF-8"?>
<!DOCTYPE svg PUBLIC "-//W3C//DTD SVG 1.1//EN" "http://www.w3.org/Graphics/SVG/1.1/DTD/svg11.dtd">
<svg xmlns="http://www.w3.org/2000/svg" version="1.1" width="500px" height="500px" style="shape-rendering:geometricPrecision; text-rendering:geometricPrecision; image-rendering:optimizeQuality; fill-rule:evenodd; clip-rule:evenodd" xmlns:xlink="http://www.w3.org/1999/xlink">
<g><path style="opacity:0.955" fill="#bd1e2c" d="M 98.5,173.5 C 108.5,173.5 118.5,173.5 128.5,173.5C 128.833,191.845 128.5,210.179 127.5,228.5C 118.032,225.917 108.365,224.917 98.5,225.5C 98.5,208.167 98.5,190.833 98.5,173.5 Z"/></g>
<g><path style="opacity:0.946" fill="#bd1e2c" d="M 152.5,173.5 C 162.5,173.5 172.5,173.5 182.5,173.5C 182.5,192.833 182.5,212.167 182.5,231.5C 194.505,231.333 206.505,231.5 218.5,232C 202.891,238.801 186.558,241.135 169.5,239C 164.041,238.642 158.708,237.642 153.5,236C 152.507,215.242 152.173,194.409 152.5,173.5 Z"/></g>
<g><path style="opacity:0.952" fill="#bd1e2c" d="M 233.5,173.5 C 243.5,173.5 253.5,173.5 263.5,173.5C 263.5,190.833 263.5,208.167 263.5,225.5C 253.785,224.837 244.118,225.503 234.5,227.5C 233.5,209.512 233.167,191.512 233.5,173.5 Z"/></g>
<g><path style="opacity:0.966" fill="#00a69b" d="M 281.5,173.5 C 297.833,173.5 314.167,173.5 330.5,173.5C 334.259,202.698 322.092,221.031 294,228.5C 287.163,227.999 283.163,224.332 282,217.5C 281.5,202.837 281.333,188.17 281.5,173.5 Z"/></g>
<g><path style="opacity:0.966" fill="#bd1e2d" d="M 292.5,248.5 C 299.197,249.054 305.864,249.554 312.5,250C 303.697,243.264 294.03,238.098 283.5,234.5C 283.5,233.833 283.167,233.5 282.5,233.5C 281.833,231.181 281.666,228.847 282,226.5C 288.075,235.858 296.241,238.358 306.5,234C 309.167,232.667 311.833,231.333 314.5,230C 335.454,214.048 356.121,197.714 376.5,181C 379.502,178.497 382.835,176.497 386.5,175C 397.098,173.868 407.765,173.368 418.5,173.5C 428.167,173.833 437.833,174.167 447.5,174.5C 418.5,198 389.5,221.5 360.5,245C 357.657,248.619 357.99,251.952 361.5,255C 390.5,278.667 419.5,302.333 448.5,326C 432.5,326.667 416.5,326.667 400.5,326C 395.416,325.827 390.416,325.161 385.5,324C 361.806,306.484 338.472,288.484 315.5,270C 307.378,263.281 299.711,256.114 292.5,248.5 Z"/></g>
<g><path style="opacity:0.97" fill="#00a59b" d="M 282.5,233.5 C 283.167,233.5 283.5,233.833 283.5,234.5C 294.03,238.098 303.697,243.264 312.5,250C 305.864,249.554 299.197,249.054 292.5,248.5C 290.801,248.34 289.134,248.506 287.5,249C 298.507,265.346 311.674,279.846 327,292.5C 328,294.5 329,296.5 330,298.5C 330.5,307.827 330.666,317.161 330.5,326.5C 314.167,326.5 297.833,326.5 281.5,326.5C 281.5,300.5 281.5,274.5 281.5,248.5C 275.5,249.167 269.5,249.833 263.5,250.5C 263.5,275.5 263.5,300.5 263.5,325.5C 253.5,325.5 243.5,325.5 233.5,325.5C 233.5,306.167 233.5,286.833 233.5,267.5C 228.821,267.334 224.155,267.501 219.5,268C 207.613,272.648 195.28,275.148 182.5,275.5C 182.5,292.167 182.5,308.833 182.5,325.5C 172.5,325.5 162.5,325.5 152.5,325.5C 152.667,307.497 152.5,289.497 152,271.5C 143.886,269.131 136.22,265.798 129,261.5C 128.5,282.831 128.333,304.164 128.5,325.5C 118.5,325.5 108.5,325.5 98.5,325.5C 98.5,300.5 98.5,275.5 98.5,250.5C 82.1537,248.022 65.8203,247.856 49.5,250C 62.5725,238.414 77.9059,232.081 95.5,231C 114.913,230.014 133.58,233.347 151.5,241C 176.91,248.102 201.577,246.102 225.5,235C 244.376,229.633 263.376,229.133 282.5,233.5 Z"/></g>
</svg>
